<?xml version="1.0" encoding="iso-8859-1"?>

<!DOCTYPE svg PUBLIC "-//W3C//DTD SVG 1.1//EN" "http://www.w3.org/Graphics/SVG/1.1/DTD/svg11.dtd">
<!-- Uploaded to: SVG Repo, www.svgrepo.com, Generator: SVG Repo Mixer Tools -->
<svg xmlns="http://www.w3.org/2000/svg" xml:space="preserve" id="_x35_" width="800" height="800" viewBox="0 0 512 512"><path d="M511.993 256c0 141.377-114.608 256-255.993 256C114.613 512 0 397.377 0 256 0 114.609 114.613 0 256 0c141.384 0 255.993 114.609 255.993 256" style="fill:#f2bc3e"/><path d="M451.823 319.517c-20.442 62.928-70.588 112.753-133.704 132.757-6.949 2.207-10.797 9.63-8.591 16.572 2.2 6.943 9.623 10.79 16.566 8.583 71.297-22.633 127.699-78.677 150.827-149.76 2.257-6.928-1.541-14.373-8.469-16.63-6.929-2.248-14.373 1.549-16.629 8.478" style="fill:#c89329"/><path d="M256 0C114.613 0 0 114.609 0 256c0 82.805 39.349 156.38 100.329 203.174L459.173 100.33C412.38 39.349 338.804 0 256 0" style="fill:#ecc984"/><path d="M199.047 30.816C117.969 51.35 53.872 114.451 31.897 194.949c-1.92 7.029 2.225 14.294 9.257 16.206 7.029 1.921 14.287-2.228 16.207-9.257C76.767 130.644 133.76 74.535 205.516 56.402c7.072-1.792 11.349-8.971 9.558-16.028-1.783-7.072-8.963-11.35-16.027-9.558" style="fill:#f2f2f2"/><path d="m256 177.688 22.34 55.829 59.991 3.997-46.192 38.498 14.746 58.285L256 302.271l-50.885 32.026 14.738-58.285-46.192-38.498 59.999-3.997z" style="fill:#e43e10"/></svg>